<?xml version="1.0" encoding="UTF-8"?>
<svg width="172px" height="128px" viewBox="0 0 172 128" version="1.1" xmlns="http://www.w3.org/2000/svg" xmlns:xlink="http://www.w3.org/1999/xlink">
    <!-- Generator: Sketch 51.2 (57519) - http://www.bohemiancoding.com/sketch -->
    <title>icon-2</title>
    <desc>Created with Sketch.</desc>
    <defs></defs>
    <g id="Page-1" stroke="none" stroke-width="1" fill="none" fill-rule="evenodd">
        <g id="Hero---Image-(tall)-Copy" transform="translate(-930.000000, -1782.000000)" stroke="#8DD5FE" stroke-width="3">
            <g id="icon-2" transform="translate(932.000000, 1784.000000)">
                <path d="M157.043478,124 L10.9565217,124 C4.90486957,124 0,119.1652 0,113.2 L0,106 L65.7391304,106 L69.3913043,109.6 L98.6086957,109.6 L102.26087,106 L168,106 L168,113.2 C168,119.1652 163.09513,124 157.043478,124 Z" id="Stroke-1" stroke-linejoin="round"></path>
                <path d="M10,106 L10,7.31034483 C10,3.27137931 13.26675,0 17.3,0 L148.7,0 C152.73325,0 156,3.27137931 156,7.31034483 L156,106" id="Stroke-3" stroke-linejoin="round"></path>
                <path d="M109,47 C109,65.227 94.227,80 76,80 C57.773,80 43,65.227 43,47 C43,28.773 57.773,14 76,14 C94.227,14 109,28.773 109,47 Z" id="Stroke-5"></path>
                <path d="M102,74 L120,92" id="Stroke-7"></path>
            </g>
        </g>
    </g>
</svg>