<?xml version="1.0" encoding="UTF-8"?>
<svg width="232px" height="46px" viewBox="0 0 232 46" version="1.1" xmlns="http://www.w3.org/2000/svg" xmlns:xlink="http://www.w3.org/1999/xlink">
    <!-- Generator: Sketch 51.2 (57519) - http://www.bohemiancoding.com/sketch -->
    <title>JPM_logo_2008_DIGITAL_D_White</title>
    <desc>Created with Sketch.</desc>
    <defs>
        <polygon id="path-1" points="0.0891623377 0.0278448276 22.9786205 0.0278448276 22.9786205 32.9331034 0.0891623377 32.9331034"></polygon>
    </defs>
    <g id="Page-1" stroke="none" stroke-width="1" fill="none" fill-rule="evenodd">
        <g id="Hero---Image-(tall)-Copy" transform="translate(-91.000000, -62.000000)">
            <g id="JPM_logo_2008_DIGITAL_D_White" transform="translate(91.000000, 62.000000)">
                <g id="Group-3">
                    <mask id="mask-2" fill="white">
                        <use xlink:href="#path-1"></use>
                    </mask>
                    <g id="Clip-2"></g>
                    <path d="M22.9786205,0.0278448276 L9.58049318,0.0278448276 L9.58049318,1.1562931 L13.846911,1.1562931 L13.846911,23.0818966 C13.846911,29.6708621 11.9938205,31.5262069 7.86263214,31.5262069 C5.26355,31.5262069 4.83557078,29.58 4.83557078,28.5731897 C4.83557078,26.1756034 4.70182727,24.7086207 2.48614318,24.7086207 C0.260056818,24.7086207 0,26.9274138 0,27.6044828 C0,30.6219828 1.36269773,32.9331034 7.44356916,32.9331034 C14.6954393,32.9331034 18.5725149,30.5193966 18.5725149,22.5030172 L18.5725149,1.14896552 L22.9786205,1.1562931 L22.9786205,0.0278448276" id="Fill-1" fill="#FFFFFE" mask="url(#mask-2)"></path>
                </g>
                <path d="M25.4929775,28 C24.7865169,28 24.2036517,28.2285061 23.7303371,28.7212225 C23.241573,29.215367 23,29.800914 23,30.5135676 C23,31.2219366 23.241573,31.8031991 23.7359551,32.2716367 C24.2247191,32.7629249 24.8103933,33 25.4929775,33 C26.1867978,33 26.7710674,32.7629249 27.2724719,32.2716367 C27.755618,31.8031991 28,31.2219366 28,30.5135676 C28,29.7952014 27.755618,29.2082262 27.2724719,28.7212225 C26.7907303,28.2285061 26.2078652,28 25.4929775,28" id="Fill-4" fill="#FFFFFE"></path>
                <path d="M55.4768324,28 C54.7803988,28 54.1948891,28.2285061 53.7146869,28.7212225 C53.2330806,29.215367 53,29.800914 53,30.5135676 C53,31.2219366 53.2330806,31.8031991 53.7146869,32.2716367 C54.2285875,32.7629249 54.7944398,33 55.4768324,33 C56.1830946,33 56.7714125,32.7629249 57.2684639,32.2716367 C57.7584948,31.8031991 58,31.2219366 58,30.5135676 C58,29.7952014 57.7584948,29.2082262 57.2726762,28.7212225 C56.7798371,28.2285061 56.188711,28 55.4768324,28" id="Fill-5" fill="#FFFFFE"></path>
                <path d="M44.1301504,17.3282192 L41.4400321,17.3282192 L41.4400321,1.26684932 L43.8765064,1.23616438 C51.7379777,1.23616438 53.4523126,4.40255708 53.4523126,9.53278539 C53.4523126,14.6936986 50.3623321,17.3282192 44.1301504,17.3282192 M45.9280386,0 L32.7579479,0.00292237443 L32.7579479,1.12511416 L36.6282566,1.12511416 L36.6282566,26.0617352 C36.6282566,28.0241096 36.5029267,28.5340639 36.2821072,29.0995434 C36.0418914,29.7351598 35.4987949,30.2348858 34.7005624,30.5578082 C34.105245,30.80621 33.2010788,30.9347945 32,30.9684018 L32,32 L46.1786985,32 L46.1786985,30.9800913 C44.9761276,30.9479452 44.0600252,30.8149772 43.4587398,30.6060274 C42.6127625,30.2772603 42.0622059,29.7950685 41.7966257,29.143379 C41.5623781,28.5822831 41.4400321,28.0869406 41.4400321,27.1021005 L41.4400321,18.56 L44.9492712,18.5497717 C55.1382991,18.5497717 58,14.6118721 58,9.23762557 C58,3.80639269 56.2453805,0 45.9280386,0" id="Fill-6" fill="#FFFFFE"></path>
                <path d="M101.137732,29.0107556 C100.948331,28.4322395 100.857419,27.7292325 100.857419,26.8255755 L100.857419,1.05304591 C100.857419,1.05304591 104.368158,1.03400613 104.325732,1.02082475 C104.286337,1.02082475 104.325732,0 104.325732,0 L95.8329861,0 C95.7132846,0.297313378 85.6947233,24.4338871 85.6947233,24.4338871 C85.6507822,24.521763 85.5598697,24.5774177 85.4659267,24.5774177 C85.3507709,24.5774177 85.2598583,24.521763 85.2234933,24.4338871 C85.2234933,24.4338871 74.5458161,0.297313378 74.4230842,0 L65,0 L65,1.03400613 L69.0895488,1.03400613 L69.0895488,25.8560117 C69.0895488,25.8560117 69.0001515,28.1129571 69.0001515,28.1173509 C68.9349975,28.7149069 68.7440812,29.2465559 68.4395242,29.6712893 C68.1213304,30.1311731 67.6046441,30.4826766 66.9318914,30.7126184 C66.4849047,30.8546844 65.8242736,30.9484187 65,30.9659939 L65,32 L74.3503542,32 L74.3503542,30.9791752 C73.5548695,30.9484187 73.2109171,30.870795 72.7442327,30.721406 C72.0578431,30.5046455 71.5426721,30.175111 71.2017501,29.7020459 C70.9002235,29.2641311 70.7002159,28.7383404 70.6320315,28.1173509 C70.6320315,28.1173509 70.5274821,25.8589409 70.5274821,25.8560117 L70.5274821,4.41722733 L71.0775029,4.41722733 C71.0775029,4.41722733 83.16887,31.701222 83.2961476,32 L84.3052767,32 L95.7496496,4.71893451 L96.0390545,4.71893451 L96.0390545,26.8255755 C96.0390545,27.7717058 95.9375355,28.5025402 95.7496496,29.0693396 C95.5253987,29.7298732 95.0375014,30.2307657 94.3298989,30.5676232 C93.8056366,30.7917067 93.0040911,30.9249851 91.9495057,30.9659939 L91.9495057,32 L105,32 L105,30.9659939 C103.957536,30.9161975 103.14993,30.7814545 102.60294,30.5456543 C101.84382,30.1853632 101.352892,29.6712893 101.137732,29.0107556" id="Fill-7" fill="#FFFFFE"></path>
                <path d="M118.465233,32.5507464 C113.125092,32.5507464 112.303057,29.963971 112.303057,21.6716024 C112.303057,15.261615 112.714075,10.4507524 118.465233,10.4507524 C124.676856,10.4507524 124.706214,15.4309694 124.706214,21.2684491 C124.706214,29.6582339 123.229023,32.5507464 118.465233,32.5507464 M118.559489,9 C111.456298,9 107,13.5665727 107,21.5427133 C107,33.2281638 116.374605,34 118.398791,34 C122.405442,34 130,31.5765841 130,21.3224027 C130,13.3402674 125.1435,9 118.559489,9" id="Fill-8" fill="#FFFFFE"></path>
                <path d="M147.420132,9 C143.359015,9 142.091485,11.3652069 140.973164,13.7726237 C140.973164,13.7726237 140.67918,13.750791 140.651111,13.7624351 C140.61861,13.7726237 140.069052,10.2590178 139.862229,9.22560435 C138.275601,9.22560435 132,9.20959372 132,9.20959372 L132,10.398747 L136.254645,10.398747 C136.254645,10.398747 136.22953,13.9574737 136.22953,15.2397798 L136.22953,26.1357423 C136.22953,27.6960511 136.053731,28.7833186 135.712473,29.444121 C135.276667,30.2199089 134.303122,30.6114416 132.688425,30.6114416 L132,30.6114416 L132,32 L145.170194,32 L145.170194,30.6114416 L144.464041,30.6114416 C142.734114,30.6114416 141.988074,30.2417416 141.524199,29.5023415 C141.104644,28.8531831 140.917026,27.7513606 140.917026,26.1357423 L140.917026,17.9630427 C140.917026,15.209214 143.022189,12.0711302 145.548384,12.0711302 C148.185378,12.0711302 148.121853,16.0737881 151.1134,14.4639919 C152.738438,13.5877737 152.466614,9 147.420132,9" id="Fill-9" fill="#FFFFFE"></path>
                <path d="M194.05065,27.5965082 C194.05065,27.6779825 194.041596,27.7303589 193.970669,27.7769156 L193.868052,27.8685742 C191.56369,29.885063 189.804106,30.6037827 188.515353,30.6037827 C185.218018,30.6037827 184.723041,27.9558681 184.723041,26.6319108 C184.723041,22.3894277 190.750297,20.2681862 194.05065,20.2681862 L194.05065,27.5965082 Z M201.099553,30.0072745 C199.659892,30.0072745 199.202642,29.2347236 199.097006,27.9485936 C199.097006,27.9485936 199.012498,25.0373424 199.012498,25.0329777 L199.012498,15.4932105 C199.012498,13.4330747 198.668428,12.0465567 197.406839,10.8346266 C196.167886,9.61978661 193.768453,9 190.299083,9 C186.968549,9 184.49517,9.59359845 182.922711,10.757517 C181.38647,11.8821532 180.787366,12.9253152 180.787366,14.4165858 C180.787366,15.1105723 180.980528,15.599418 181.38647,15.9267701 C181.790903,16.2744908 182.267771,16.4330747 182.851784,16.4330747 C184.187318,16.4330747 184.940348,15.7769156 185.218018,14.0834142 C185.423253,12.8234724 185.70696,12.1062076 186.351336,11.4500485 C187.036457,10.757517 188.11092,10.4083414 189.561144,10.4083414 C191.246784,10.4083414 192.441974,10.8462658 193.110495,11.7221145 C193.727708,12.5441319 194.05065,13.6644035 194.05065,15.0480116 L194.05065,18.8685742 C189.739215,19.2439379 179.560486,20.0324927 180.014718,27.5063046 C180.183735,30.4321048 182.857821,33 186.313609,33 C190.137612,33 192.556663,30.900582 194.197031,29.2216295 C194.45961,30.8132881 195.994343,32.71484 198.777082,32.71484 C201.909927,32.71484 203.782693,31.2337536 204,27.5310378 L203.194152,27.5310378 C202.982882,29.1401552 201.950672,30.0072745 201.099553,30.0072745 Z" id="Fill-10" fill="#FFFFFE"></path>
                <path d="M229.201977,29.5151993 C228.732572,28.8639001 228.346003,27.7701816 228.346003,26.1412084 L228.410431,15.8524218 C228.410431,14.3641524 228.197205,13.0905651 227.608147,12.0461655 C227.01142,11.030777 226.170786,10.2590817 225.129197,9.75283804 C224.069201,9.24949546 222.852736,9 221.518152,9 C216.712119,9 214.783876,11.7734612 213.733083,13.403885 L213.292824,13.3893794 L212.43685,9.26255045 L205,9.24949546 L205,10.4345989 C206.397477,10.4882694 208.724561,10.5114783 208.724561,10.5114783 L208.724561,26.1296039 C208.724561,27.3437185 208.623317,28.215502 208.434634,28.7942735 C208.238282,29.4861882 207.764275,29.969223 207.060167,30.2477296 C206.610704,30.4304995 205.903528,30.5305878 205,30.5683022 L205,32 L216.822567,32 L216.822567,30.5595989 C215.633714,30.4682139 214.828362,30.1635974 214.404977,29.5891776 C213.943242,28.9770434 213.733083,27.9195888 213.733083,26.3776488 L213.733083,20.3796039 C213.733083,17.8701438 213.719277,15.447717 214.622806,13.9492936 C215.599966,12.3130676 217.38708,11.412273 219.390489,11.412273 C221.19141,11.412273 222.13789,11.9576816 222.731549,13.0397957 C223.214761,13.918832 223.530765,16.5341826 223.530765,18.3357719 L223.472473,25.7669652 C223.472473,27.0057392 223.638146,27.9195888 223.530765,28.5085141 C223.395773,29.190275 223.06903,29.7240792 222.499915,30.0780146 C222.087268,30.3478179 221.438384,30.4885217 220.603886,30.5465439 L220.603886,32 L232,32 L232,30.5683022 C230.556502,30.4812689 229.614624,30.1490918 229.201977,29.5151993" id="Fill-11" fill="#FFFFFE"></path>
                <path d="M164.7043,24.7747864 C161.631854,24.7747864 159.873572,23.7006832 159.873572,17.6807433 C159.873572,13.4310306 161.412069,10.2700148 164.7043,10.2700148 C168.537658,10.2700148 169.659321,13.147911 169.659321,17.5902618 C169.659321,23.9429402 167.581213,24.7747864 164.7043,24.7747864 M176.325635,8.12472716 C175.629901,8.33633717 175.166079,8.93322333 174.922041,9.94311385 C174.738634,10.8727385 174.37182,11.4112495 173.883745,11.5615656 C173.394155,11.6987472 172.849997,11.659344 172.19822,11.4448152 C170.990159,10.3634151 168.664982,9.04705492 164.578492,9.04705492 C158.000092,9.04705492 155.097411,13.5609153 155.097411,17.6807433 C155.097411,22.499614 157.023942,24.8317022 161.257461,25.6912767 C161.513624,25.7408956 161.513624,26.0167183 161.289292,26.0634184 C157.678751,26.7668393 154.47898,27.7854861 154.47898,31.0909803 C154.47898,33.0815738 155.667336,34.1731896 157.186128,34.7686164 C158.864075,35.4253371 161.219567,35.7653725 164.179847,35.8164507 C166.768766,35.8441789 168.602836,35.9317417 169.797255,36.0689234 C171.088683,36.2104832 172.110306,36.5651124 172.86667,37.0948671 C173.644255,37.6757001 174.055026,38.529437 174.055026,39.6458622 C174.055026,41.1752918 173.207716,42.4040892 171.514612,43.3132826 C169.938221,44.1597226 167.785841,44.6033739 165.109008,44.6033739 C162.812631,44.6033739 160.933088,44.3625763 159.238468,43.3453889 C157.978871,42.5967273 157.734834,41.1227541 158.000092,40.0647041 C158.232003,38.9906009 157.833358,37.8610412 156.543446,37.6508906 C155.831039,37.5341403 154.93674,37.9077414 154.524453,38.529437 C154.136418,39.1044325 154,39.7918002 154,40.6134307 C154,43.3322545 156.181179,44.6033739 157.847,45.0732941 C160.38893,45.819037 162.074456,46 164.411758,46 C167.509973,46 170.026135,45.5432143 171.823827,44.6661273 C173.623035,43.7904996 174.876568,42.7222339 175.54805,41.4919771 C176.252879,40.2515047 176.590893,38.9862227 176.590893,37.7720191 C176.590893,36.1302173 176.216501,34.790507 175.48742,33.8025072 C173.136475,30.6925698 169.797255,31.0909803 162.29121,30.7465668 C158.679152,30.7465668 157.983418,30.1190337 157.983418,29.0493086 C157.983418,27.4804758 159.321835,26.8631583 164.548177,26.0896872 C169.695699,25.3220537 174.488534,23.503667 174.488534,17.4530801 C174.488534,15.7134999 174.065637,14.217636 173.557857,13.1727204 C174.621921,13.3989242 175.613228,13.3989242 176.518137,13.1143452 C177.556433,12.8034974 178.230946,12.3014709 178.622012,11.6024282 C179.011563,10.8960886 179.100993,10.2349897 178.885755,9.58702529 C178.441637,8.23126185 177.603421,7.74528852 176.325635,8.12472716" id="Fill-12" fill="#FFFFFE"></path>
            </g>
        </g>
    </g>
</svg>