<?xml version="1.0" encoding="UTF-8"?>
<svg width="743px" height="761px" viewBox="0 0 743 761" version="1.1" xmlns="http://www.w3.org/2000/svg" xmlns:xlink="http://www.w3.org/1999/xlink">
    <!-- Generator: Sketch 51.2 (57519) - http://www.bohemiancoding.com/sketch -->
    <title>quote</title>
    <desc>Created with Sketch.</desc>
    <defs></defs>
    <g id="Page-1" stroke="none" stroke-width="1" fill="none" fill-rule="evenodd">
        <g id="Hero---Image-(tall)" transform="translate(-1109.000000, -4228.000000)">
            <g id="quote" transform="translate(1111.000000, 4230.000000)">
                <text id="vel-placerat-nisl.-D" font-family="Helvetica" font-size="30" font-weight="normal" line-spacing="40" fill="#FFFFFF">
                    <tspan x="113" y="407">vel placerat nisl. Donec dapibus </tspan>
                    <tspan x="113" y="447">bibendum hendrerit. Donec convallis </tspan>
                    <tspan x="113" y="487">feugiat ligula, vitae finibus orci. </tspan>
                    <tspan x="113" y="527">Pellentesque eget risus posuere, </tspan>
                    <tspan x="113" y="567">condimentum enim id.</tspan>
                </text>
                <text id="John-Smith-Managing" font-family="Helvetica-Bold, Helvetica" font-size="34" font-weight="bold" line-spacing="40" fill="#FFFFFF">
                    <tspan x="441.294922" y="640.587891">John Smith</tspan>
                    <tspan x="319.925781" y="691" font-family="Helvetica" font-size="24" font-weight="normal" line-spacing="60">Managing Director,  J.P. Morgan</tspan>
                </text>
                <text id="Lorem-ipsum-dolor-si" font-family="Helvetica-Bold, Helvetica" font-size="70" font-weight="bold" line-spacing="80" fill="#8DD5FE">
                    <tspan x="193" y="246">Lorem ipsum </tspan>
                    <tspan x="113" y="326">dolor sit amet</tspan>
                </text>
                <path d="M31.6816941,120 C14.2567623,120 0,107.857647 0,89.0565831 C0,73.780719 7.12838116,61.2466767 16.2368682,47.1458792 L48.7048495,1 L36.8902744,58.1539511 C41.4329571,61.402437 44.6380647,63.8401327 46.5055972,65.4670382 C55.500268,73.3027683 58.3317357,81.1659499 59,89.0565831" id="Path" stroke="#8DD5FE" stroke-width="3" stroke-linecap="round" stroke-linejoin="round"></path>
                <path d="M90.6816941,119 C73.2567623,119 59,106.857647 59,88.0565831 C59,72.780719 66.1283812,60.2466767 75.2368682,46.1458792 L107.70485,0 L95.8902744,57.1539511 C100.432957,60.402437 103.638065,62.8401327 105.505597,64.4670382 C114.500268,72.3027683 119.90864,80.1659499 120.576904,88.0565831" id="Path" stroke="#8DD5FE" stroke-width="3" stroke-linecap="round" stroke-linejoin="round"></path>
                <path d="M120.699774,88.5 L739.528164,88.5" id="Line-4" stroke="#8DD5FE" stroke-width="3" stroke-linecap="round"></path>
                <path d="M34.5,211.67994 L34.5,757.300512" id="Line-5" stroke="#8DD5FE" stroke-width="3" stroke-linecap="round"></path>
                <path d="M35.6980198,757.5 L175.197238,757.5" id="Line-6" stroke="#8DD5FE" stroke-width="3" stroke-linecap="round"></path>
                <path d="M739.5,88.6985294 L739.5,181.925386" id="Line-7" stroke="#8DD5FE" stroke-width="3" stroke-linecap="round"></path>
            </g>
        </g>
    </g>
</svg>